<svg width="52" height="52" viewBox="0 0 52 52" fill="none" xmlns="http://www.w3.org/2000/svg">
<circle cx="26" cy="26" r="26" fill="#D9D9D9"/>
<path fill-rule="evenodd" clip-rule="evenodd" d="M19.9169 18.2594C23.896 17.9135 27.8977 17.9135 31.8768 18.2594L33.7848 18.4262C34.6719 18.5035 35.5072 18.877 36.1561 19.4867C36.805 20.0965 37.2298 20.9068 37.3621 21.7874C37.9351 25.5989 37.9351 29.4746 37.3621 33.2861C37.3115 33.6197 37.2206 33.9394 37.0942 34.2389C37.0108 34.4373 36.753 34.4676 36.6065 34.3084L31.0201 28.1622C30.8966 28.0264 30.7362 27.9293 30.5585 27.8829C30.3809 27.8364 30.1935 27.8426 30.0193 27.9007L26.8212 28.9671L22.1825 23.7485C22.0967 23.6519 21.9921 23.574 21.875 23.5193C21.758 23.4647 21.631 23.4346 21.5019 23.4308C21.3728 23.427 21.2443 23.4496 21.1243 23.4973C21.0042 23.545 20.8952 23.6167 20.8039 23.7081L14.5946 29.9174C14.5524 29.9607 14.4985 29.9908 14.4395 30.004C14.3804 30.0172 14.3188 30.0128 14.2622 29.9915C14.2056 29.9702 14.1564 29.9328 14.1208 29.8839C14.0851 29.8351 14.0644 29.7769 14.0614 29.7165C13.9119 27.0674 14.0356 24.4099 14.4303 21.7861C14.5626 20.9056 14.9874 20.0952 15.6363 19.4855C16.2853 18.8757 17.1205 18.5022 18.0076 18.425L19.9169 18.2594ZM28.4234 23.746C28.4234 23.2433 28.6231 22.7612 28.9785 22.4057C29.334 22.0503 29.8161 21.8506 30.3188 21.8506C30.8215 21.8506 31.3036 22.0503 31.659 22.4057C32.0145 22.7612 32.2142 23.2433 32.2142 23.746C32.2142 24.2487 32.0145 24.7308 31.659 25.0862C31.3036 25.4417 30.8215 25.6414 30.3188 25.6414C29.8161 25.6414 29.334 25.4417 28.9785 25.0862C28.6231 24.7308 28.4234 24.2487 28.4234 23.746Z" fill="white"/>
<path d="M14.4745 32.7176C14.4403 32.752 14.4145 32.7938 14.3992 32.8399C14.3839 32.8859 14.3794 32.9349 14.3861 32.9829L14.4303 33.2862C14.5626 34.1667 14.9874 34.9771 15.6363 35.5868C16.2852 36.1966 17.1205 36.5701 18.0076 36.6474L19.9156 36.8129C23.8959 37.1591 27.8965 37.1591 31.8768 36.8129L33.7848 36.6474C34.3081 36.6021 34.8171 36.453 35.2822 36.2089C35.4553 36.1192 35.4844 35.8905 35.3529 35.7464L30.1722 30.0476C30.1311 30.0018 30.0775 29.9691 30.018 29.9534C29.9585 29.9377 29.8957 29.9397 29.8373 29.9591L26.8275 30.9624C26.6515 31.0212 26.4621 31.027 26.2829 30.9792C26.1037 30.9313 25.9424 30.8319 25.8191 30.6933L21.6556 26.0091C21.6269 25.9769 21.5919 25.951 21.5529 25.9328C21.5138 25.9146 21.4714 25.9046 21.4283 25.9034C21.3852 25.9023 21.3424 25.9099 21.3023 25.9259C21.2623 25.9419 21.226 25.9659 21.1956 25.9965L14.4745 32.7176Z" fill="white"/>
</svg>
